<svg xmlns="http://www.w3.org/2000/svg" width="194" height="58" viewBox="0 0 194 58" fill="none"><path d="M170.464 -58.7141C183.33 -99.3964 193.2 -83.3764 150.807 -92.6512C141.654 -134.472 157.851 -125.239 116.808 -112.17C87.829 -143.957 106.474 -143.915 77.5787 -112.212C36.2401 -125.324 52.8177 -134.303 43.5798 -92.6512C2.57871 -83.7137 10.9308 -99.5229 23.9229 -58.5876C-7.75594 -29.6673 -8.17776 -48.4275 23.8807 -19.2964C11.0152 21.4281 1.14451 5.36591 43.5376 14.6406C49.5275 41.9168 46.9122 47.6924 50.5399 44.9943C58.4702 39.0922 68.2986 37.1529 77.5365 34.2019C84.0748 41.3687 91.6254 47.9454 95.5061 57.0515C96.0545 58.3162 98.2902 58.3162 98.8385 57.0515C102.719 47.9875 110.228 41.4109 116.766 34.2862C126.046 37.2373 135.917 39.1344 143.805 45.0365C144.944 45.8796 146.884 44.7414 146.715 43.3502C145.45 33.5695 148.698 24.1262 150.765 14.7249C178.268 8.73853 184.047 11.2258 181.305 7.60028C175.273 -0.283249 173.375 -10.106 170.422 -19.3386C201.088 -47.4158 202.607 -29.4987 170.464 -58.7141ZM152.41 -80.6362C153.169 -82.2382 153.844 -83.8823 154.435 -85.5686C160.214 -84.1353 165.993 -82.6176 171.94 -82.0695C169.409 -76.6733 167.849 -70.9398 166.204 -65.2064C164.01 -65.5858 160.678 -65.9231 159.286 -66.0074C161.268 -73.0477 159.497 -76.8841 152.368 -78.9499C152.157 -78.992 151.946 -79.0763 151.693 -79.1185C151.946 -79.6244 152.157 -80.1303 152.41 -80.6362ZM123.093 -6.14319C129.885 -2.47546 136.549 2.54132 137.984 10.4249C133.428 10.5935 123.726 11.6474 123.093 -6.14319ZM133.301 15.821C132.205 19.2358 130.644 20.5006 126.594 19.6574C127.227 18.0133 127.733 16.327 128.113 14.5563C129.842 15.1044 131.572 15.5259 133.301 15.821ZM120.478 1.36092C108.161 -11.4972 85.9308 -11.2865 73.7823 1.36092C77.0725 -9.89524 73.3605 -22.2053 65.2193 -30.4683C64.2069 -31.4801 63.1102 -32.4497 61.9713 -33.335C60.3684 -34.5998 58.5967 -35.6959 56.7407 -36.6233C54.6738 -37.6351 52.4803 -38.4783 50.1603 -39.0263C52.4803 -39.5744 54.6738 -40.4175 56.7829 -41.4293C58.5967 -42.3568 60.3262 -43.4108 61.9291 -44.6755C63.068 -45.5608 64.1226 -46.5304 65.1771 -47.5422C66.7379 -49.1442 68.1721 -50.8727 69.3953 -52.7276C70.1124 -53.8238 70.7874 -54.962 71.3779 -56.1424C75.3009 -63.8573 75.8914 -72.2046 73.7823 -79.3714C80.4049 -72.4575 89.8959 -69.3379 99.0495 -69.8438C107.823 -70.3496 115.332 -74.0174 120.478 -79.3714C115.458 -62.3396 126.637 -43.1578 144.1 -39.0263C131.108 -35.9488 121.406 -24.4397 119.592 -11.4129C119.002 -7.11282 119.297 -2.72841 120.478 1.36092ZM97.1513 10.8464C98.3324 15.6946 100.188 20.3741 102.677 24.7585C98.4589 29.6488 95.6749 29.438 91.6254 24.7585C94.072 20.3741 95.9702 15.6946 97.1513 10.8464ZM65.0084 9.79248C62.14 10.3827 59.1451 10.5513 56.3189 10.4249C57.7531 2.54132 64.3757 -2.4333 71.2092 -6.14319C70.9983 -0.536194 68.9314 5.15512 65.0084 9.79248ZM67.7081 19.6153C66.1895 19.9525 64.5444 20.0368 63.3633 19.3623C62.2244 18.6878 61.4651 17.2544 61.0011 15.821C62.7306 15.5681 64.46 15.1465 66.1895 14.5142C66.5691 16.2848 67.0753 18.0133 67.7081 19.6153ZM38.7289 -42.399H38.6867C37.1259 -44.1696 35.8183 -46.1089 34.6794 -48.0903C34.3841 -48.554 34.131 -49.0599 33.8779 -49.5658C41.5129 -52.2218 49.0213 -49.1021 55.6439 -45.0128C53.5348 -43.9166 51.2992 -43.0735 48.937 -42.5676C45.6889 -41.8931 42.3144 -41.7666 38.7289 -42.399ZM55.6018 -32.9978C48.9792 -28.9506 41.4707 -25.7888 33.8357 -28.4447C35.1434 -30.932 36.7885 -33.4615 38.6867 -35.6115H38.7289C42.2722 -36.2018 45.6468 -36.0753 48.8104 -35.4008C51.2148 -34.937 53.4927 -34.0939 55.6018 -32.9978ZM53.1552 -50.7462C48.8948 -52.8541 44.4657 -54.2453 39.91 -54.2875C37.379 -54.3297 34.8059 -53.9502 32.1906 -53.0228C31.1361 -55.4679 29.955 -58.9249 29.1957 -61.4965C32.3172 -62.0445 35.3965 -62.2975 38.4758 -62.2975C43.622 -62.2975 48.6839 -61.4965 53.5348 -59.9788C56.0658 -59.1778 58.5545 -58.2082 60.9589 -57.0278C62.6462 -56.2268 64.2913 -55.2993 65.9364 -54.3296C65.3037 -53.4022 64.5866 -52.5169 63.8273 -51.6315C62.8993 -50.5776 61.9291 -49.5658 60.8745 -48.6805C60.3262 -48.2168 59.7778 -47.753 59.1873 -47.2893C57.2469 -48.554 55.2221 -49.7344 53.1552 -50.7462ZM31.5579 -42.9049C32.6546 -41.5558 33.8779 -40.2489 35.2699 -39.0263C33.8779 -37.8038 32.6546 -36.4969 31.5579 -35.1478C28.816 -38.1832 29.0691 -40.1224 31.5579 -42.9049ZM32.2328 -24.9878C41.6395 -21.6573 50.8352 -25.325 59.2294 -30.6791C59.82 -30.2575 60.3684 -29.7516 60.9589 -29.2879C62.8993 -27.6016 64.7975 -25.3672 65.9786 -23.6809C55.2221 -17.0199 42.5253 -14.2375 29.2379 -16.514C29.9972 -19.1278 31.1783 -22.5426 32.2328 -24.9878ZM64.9662 -87.8452C68.9735 -83.0813 70.9983 -77.39 71.167 -71.8673C64.3757 -75.5351 57.7109 -80.5519 56.2767 -88.4354C59.1029 -88.5197 62.14 -88.3932 64.9662 -87.8452ZM61.0011 -93.7894C62.14 -97.2464 63.7007 -98.4268 67.7081 -97.6258C67.0753 -95.9816 66.5691 -94.2953 66.1895 -92.5247C64.46 -93.1149 62.7306 -93.5365 61.0011 -93.7894ZM91.6254 -102.769C95.7592 -107.575 98.5433 -107.575 102.677 -102.769C100.188 -98.3846 98.3324 -93.7051 97.1513 -88.8148C95.9702 -93.7051 94.072 -98.3846 91.6254 -102.769ZM129.294 -87.803C129.716 -88.2246 135.706 -88.4775 136.296 -88.4354C136.845 -88.4354 137.435 -88.4354 137.984 -88.3932C136.549 -80.5097 129.927 -75.5351 123.093 -71.8252C123.304 -77.4743 125.371 -83.1235 129.294 -87.803ZM126.594 -97.6258C130.306 -98.4268 132.12 -97.415 133.301 -93.7894C131.572 -93.4943 129.842 -93.1149 128.113 -92.4825C127.733 -94.2953 127.227 -95.9816 126.594 -97.6258ZM145.492 -42.5676C143.088 -43.0735 140.81 -43.9166 138.701 -45.0128C145.323 -49.0599 152.832 -52.2218 160.467 -49.5658C156.628 -42.2725 155.827 -40.3754 145.492 -42.5676ZM160.425 -28.4447C152.79 -25.7888 145.281 -28.9506 138.659 -32.9978C143.636 -35.6115 149.584 -36.6655 155.531 -35.6537H155.574C157.514 -33.4193 159.159 -30.932 160.425 -28.4447ZM135.073 -30.6791C143.51 -25.2829 152.705 -21.6151 162.112 -24.9456C163.251 -22.3318 164.263 -19.2121 165.107 -16.4719C161.985 -15.9238 158.906 -15.6709 155.827 -15.6709C150.681 -15.6709 145.619 -16.4719 140.725 -17.9896C136.296 -19.3386 132.078 -21.3622 128.324 -23.6387C129.969 -25.9996 132.458 -28.7398 135.073 -30.6791ZM162.745 -35.1057C161.648 -36.4547 160.425 -37.7616 159.033 -38.9842C160.425 -40.2068 161.648 -41.4715 162.745 -42.8627C165.486 -39.7852 165.233 -37.8459 162.745 -35.1057ZM162.112 -53.0228C155.025 -55.5101 147.939 -54.0767 141.147 -50.7462C139.08 -49.7344 137.056 -48.554 135.115 -47.2893C132.458 -49.2707 130.011 -51.9688 128.366 -54.3296C132.12 -56.6483 136.339 -58.5876 140.683 -59.9788C145.576 -61.4965 150.681 -62.2975 155.827 -62.2975C158.906 -62.2975 161.985 -62.0445 165.107 -61.4965C164.263 -58.7562 163.209 -55.6787 162.112 -53.0228ZM152.03 -75.0713C155.995 -73.7644 157.303 -71.783 155.278 -66.0917C150.259 -66.0495 145.323 -65.3329 140.515 -63.9416C144.142 -67.3986 147.264 -71.3193 149.837 -75.6615C150.47 -75.5351 151.271 -75.3243 152.03 -75.0713ZM145.745 -87.5079C147.39 -87.2128 149.035 -86.8755 150.638 -86.4961C149.542 -83.5029 148.234 -80.6783 146.673 -78.0224C141.654 -69.38 134.356 -62.7191 126.046 -58.3346C124.823 -60.8641 123.684 -64.4054 123.304 -67.6515C132.12 -72.1624 140.135 -78.3596 141.822 -88.1403C143.13 -87.9295 144.438 -87.7187 145.745 -87.5079ZM140.304 -113.604C140.81 -107.702 142.371 -101.884 143.805 -96.1503C142.202 -95.5601 140.683 -94.8855 139.165 -94.211C138.532 -94.211 137.857 -94.211 137.224 -94.1688C135.242 -100.914 131.825 -102.853 124.949 -101.167C124.654 -101.673 124.401 -102.179 124.106 -102.685C123.937 -104.413 123.726 -106.142 123.431 -107.87C129.125 -109.514 134.947 -111.074 140.304 -113.604ZM123.431 -91.2178C121.322 -85.4843 117.441 -80.847 112.674 -77.8959C112.463 -85.653 113.476 -93.7473 119.592 -98.9748C121.153 -96.5718 122.503 -93.8737 123.431 -91.2178ZM117.441 -102.137C109.848 -95.7287 108.414 -85.8637 108.92 -75.9145C105.925 -74.6497 102.382 -73.8487 99.4713 -73.638C99.3447 -77.9802 99.7244 -82.5754 100.737 -87.0863C102.593 -95.3071 106.389 -102.685 111.578 -108.966C113.434 -107.027 115.838 -104.287 117.441 -102.137ZM97.1513 -125.155C100.568 -120.307 104.786 -116.049 108.92 -111.791C107.444 -110.02 105.503 -107.364 104.786 -106.226C99.3447 -111.833 94.9578 -111.791 89.5585 -106.226C88.757 -107.449 86.8166 -110.105 85.3824 -111.791C89.5163 -116.049 93.7345 -120.265 97.1513 -125.155ZM82.7249 -108.966C91.3301 -98.6376 95.2531 -86.3275 94.8734 -73.638C92.005 -73.8487 88.4195 -74.6497 85.4246 -75.9145C85.8886 -85.8216 84.4966 -95.6865 76.9038 -102.137C78.4645 -104.287 80.8689 -107.027 82.7249 -108.966ZM81.6282 -77.8959C76.8616 -80.847 72.9808 -85.4843 70.8717 -91.2178C71.7997 -93.9159 73.1496 -96.614 74.7103 -98.9748C80.8267 -93.7473 81.7969 -85.653 81.6282 -77.8959ZM53.9988 -113.604C59.3982 -111.074 65.1771 -109.514 70.9139 -107.87C70.5765 -106.142 70.3655 -104.371 70.1968 -102.6C69.9015 -102.137 69.6484 -101.631 69.3953 -101.125C62.1822 -102.938 59.0185 -100.408 57.1625 -94.1267C56.5298 -94.1688 55.8549 -94.1688 55.2221 -94.1688C53.7036 -94.8855 52.1428 -95.5179 50.5399 -96.1081C51.9319 -101.926 53.4927 -107.702 53.9988 -113.604ZM52.4803 -88.0981C54.1676 -78.3596 62.14 -72.1203 70.9983 -67.6094C70.6186 -64.4475 69.5219 -60.9906 68.2564 -58.2925C66.5691 -59.1778 64.924 -60.1896 63.3633 -61.2435C53.9988 -67.5672 47.2919 -76.4204 43.622 -86.4961C46.4482 -87.1285 49.6541 -87.7608 52.4803 -88.0981ZM44.5078 -75.6615C47.081 -71.3193 50.2024 -67.3986 53.8301 -63.9416C49.0213 -65.3329 44.086 -66.0495 39.0242 -66.0917C36.9572 -72.0781 38.2649 -74.4811 44.5078 -75.6615ZM22.3622 -82.0695C28.2677 -82.5754 34.0888 -84.0931 39.8678 -85.5686C40.5849 -83.5029 41.8925 -80.5519 42.5675 -79.1606C35.3121 -77.39 32.8655 -73.5958 34.9747 -66.0074C33.5826 -65.9231 30.2924 -65.5858 28.0568 -65.2064C26.496 -70.9398 24.8931 -76.7155 22.3622 -82.0695ZM10.8042 -39.0263C15.6974 -42.399 19.9578 -46.6148 24.2182 -50.7462C25.568 -49.608 27.0022 -48.554 28.4364 -47.5422C28.7317 -47.0363 28.9848 -46.5726 29.3222 -46.0667C24.7666 -41.345 24.1338 -37.2979 29.3222 -31.9016C29.027 -31.4379 28.7739 -30.9742 28.4786 -30.5104C27.0444 -29.4987 25.6102 -28.4447 24.2604 -27.2643C19.9578 -31.3958 15.6974 -35.6115 10.8042 -39.0263ZM39.8678 7.55811C34.0888 6.12474 28.3099 4.60707 22.3622 4.05901C24.8931 -1.29504 26.4538 -7.07066 28.099 -12.8041C30.2924 -12.4247 33.6248 -12.0875 35.0168 -12.0031C32.9921 -5.00493 34.8059 -0.789154 42.6096 1.15012C41.9347 2.49916 40.6271 5.49237 39.8678 7.55811ZM39.0242 -11.9188C44.0438 -12.0031 49.0213 -12.6777 53.8301 -14.0689C50.2024 -10.6119 47.081 -6.64908 44.5078 -2.34898C38.0118 -3.57156 37.0416 -6.18535 39.0242 -11.9188ZM43.6642 8.48558C48.0933 -3.69804 56.7407 -13.6051 68.2564 -19.6759C69.4375 -17.2729 70.6186 -13.7316 70.9983 -10.359C62.1822 -5.84808 54.1676 0.349121 52.4803 10.1297C49.6541 9.75032 46.4482 9.11795 43.6642 8.48558ZM53.9567 35.5931C53.4505 29.6488 51.9319 23.9154 50.4555 18.1397C52.0585 17.5495 53.6192 16.875 55.1378 16.2005C55.7705 16.2005 56.4454 16.2005 57.0781 16.1583C59.0607 22.9036 62.4775 24.8428 69.3532 23.1565C69.6485 23.6624 69.9015 24.1683 70.1968 24.6742C70.3655 26.4027 70.5343 28.1311 70.8717 29.8596C65.1349 31.5459 59.3982 33.0636 53.9567 35.5931ZM73.8245 19.5309C72.6856 17.5495 71.6732 15.4416 70.8717 13.2073C72.9387 7.47379 76.8194 2.87859 81.6282 -0.114624C81.8391 7.64243 80.8267 15.7367 74.7103 20.9643C74.3729 20.5006 74.0776 20.0368 73.8245 19.5309ZM79.3504 27.2458C78.4645 26.2341 77.6209 25.2223 76.8616 24.1683C78.9707 22.3977 80.5736 20.3741 81.7969 18.1819C85.2137 12.1533 85.7199 4.86002 85.3824 -2.05388C88.4195 -3.31862 91.9628 -4.11961 94.8312 -4.3304C95.2109 8.44344 91.2458 20.7535 82.6828 30.9979C81.586 29.7332 80.4471 28.5106 79.3504 27.2458ZM97.1513 47.1443C93.7345 42.254 89.5163 38.0383 85.3824 33.7381C86.5213 32.3891 87.5759 30.9979 88.5461 29.5645C88.8835 29.1008 89.221 28.637 89.5163 28.1733C89.685 28.3419 89.8537 28.5106 90.0225 28.6792C91.9628 30.5342 94.6625 32.3891 97.1091 32.3891C99.8087 32.3891 102.846 30.1126 104.744 28.1733C105.588 29.438 107.486 32.094 108.92 33.7381C104.786 38.0383 100.568 42.254 97.1513 47.1443ZM111.578 30.9557C103.057 20.7535 99.0495 8.40128 99.4291 -4.37256C102.297 -4.16177 105.883 -3.36076 108.878 -2.09604C108.414 7.81107 109.806 17.7182 117.399 24.1262C115.838 26.2762 113.434 28.9743 111.578 30.9557ZM112.716 -0.114624C117.483 2.87859 121.364 7.47379 123.473 13.2073C122.503 15.9054 121.153 18.6035 119.634 20.9643C113.476 15.7367 112.506 7.64243 112.716 -0.114624ZM140.346 35.5931C134.947 33.0636 129.168 31.5459 123.431 29.8596C123.768 28.089 123.979 26.3605 124.148 24.5899C124.443 24.1262 124.696 23.6203 124.949 23.1565C132.247 24.9272 135.368 22.3555 137.224 16.1583C137.857 16.2005 138.49 16.2005 139.165 16.2005C140.683 16.9172 142.244 17.5495 143.847 18.1397C142.371 23.9154 140.81 29.691 140.346 35.5931ZM141.822 10.0876C140.557 2.6678 135.579 -2.77055 129.336 -6.90202C127.396 -8.16676 125.371 -9.34718 123.304 -10.4011C123.389 -11.1178 123.515 -11.8345 123.642 -12.5512C124.148 -15.1228 125.16 -17.9052 126.046 -19.718C129.885 -17.6945 133.765 -14.9963 137.224 -11.8345C143.341 -6.18535 147.896 0.728531 150.68 8.44342C147.854 9.11795 144.648 9.75032 141.822 10.0876ZM149.795 -2.34898C147.222 -6.64908 144.1 -10.6119 140.472 -14.0689C145.281 -12.6777 150.217 -11.961 155.236 -11.9188C155.447 -11.2865 155.7 -10.4855 155.869 -9.6423C156.206 -7.99814 156.333 -6.18535 155.489 -5.08925C154.35 -3.48724 151.735 -2.72839 149.795 -2.34898ZM171.94 4.05901C166.035 4.56491 160.214 6.12474 154.435 7.55811C153.718 5.49237 152.41 2.54132 151.735 1.19228C159.497 -0.746994 161.057 -4.75198 159.497 -11.2443C159.454 -11.4972 159.37 -11.708 159.328 -11.961C159.876 -12.0031 160.467 -12.0453 161.015 -12.1296C162.745 -12.2561 164.474 -12.4669 166.246 -12.8041C167.849 -7.07066 169.409 -1.29504 171.94 4.05901ZM170.084 -27.2643C168.734 -28.4025 167.3 -29.4565 165.908 -30.4261C165.613 -30.932 165.318 -31.4379 165.022 -31.9016C169.62 -36.7076 170.169 -40.7127 165.022 -46.0667C165.318 -46.5304 165.571 -46.9942 165.866 -47.5001C167.3 -48.5119 168.734 -49.608 170.084 -50.7462C174.387 -46.6148 178.605 -42.399 183.498 -38.9842C178.605 -35.6115 174.345 -31.3958 170.084 -27.2643Z" fill="#9B9183"></path></svg>