<svg width="203" height="45" viewBox="0 0 203 45" fill="none" xmlns="http://www.w3.org/2000/svg">
<path d="M39.5406 17.9271C42.5249 8.49052 44.8145 12.2065 34.981 10.0551C32.8578 0.354484 36.615 2.49606 27.0947 5.52752C20.3727 -1.84577 24.6975 -1.83599 17.9951 5.51774C8.40621 2.4765 12.2515 0.393599 10.1087 10.0551C0.598153 12.1283 2.53549 8.46118 5.54913 17.9565C-1.79906 24.6648 -1.8969 20.3132 5.53934 27.0704C2.55506 36.5168 0.265479 32.7911 10.0989 34.9424C11.4883 41.2694 10.8817 42.6091 11.7232 41.9832C13.5627 40.6142 15.8425 40.1643 17.9853 39.4798C19.5019 41.1422 21.2533 42.6677 22.1535 44.78C22.2807 45.0733 22.7993 45.0733 22.9265 44.78C23.8266 42.6775 25.5683 41.152 27.0849 39.4994C29.2375 40.1839 31.5271 40.6239 33.3568 41.993C33.621 42.1886 34.0711 41.9245 34.0319 41.6018C33.7384 39.3331 34.4918 37.1427 34.9712 34.962C41.3507 33.5734 42.6912 34.1503 42.0552 33.3093C40.656 31.4807 40.2157 29.2022 39.5308 27.0606C46.6442 20.5479 46.9964 24.7039 39.5406 17.9271ZM35.3528 12.8421C35.5289 12.4705 35.6855 12.0892 35.8225 11.698C37.163 12.0305 38.5034 12.3825 39.8831 12.5096C39.296 13.7613 38.934 15.0913 38.5524 16.4212C38.0436 16.3332 37.2706 16.255 36.9477 16.2354C37.4076 14.6023 36.9966 13.7124 35.343 13.2333C35.2941 13.2235 35.2452 13.2039 35.1865 13.1942C35.2452 13.0768 35.2941 12.9595 35.3528 12.8421ZM28.5526 30.1214C30.1279 30.9722 31.6738 32.1359 32.0065 33.9645C30.9498 34.0036 28.6993 34.2481 28.5526 30.1214ZM30.9204 35.2162C30.666 36.0083 30.304 36.3017 29.3647 36.1061C29.5115 35.7247 29.6289 35.3336 29.7169 34.9229C30.1181 35.05 30.5193 35.1478 30.9204 35.2162ZM27.9459 31.8621C25.0888 28.8795 19.9324 28.9284 17.1145 31.8621C17.8776 29.2511 17.0166 26.3957 15.1282 24.479C14.8934 24.2443 14.639 24.0194 14.3748 23.814C14.003 23.5207 13.592 23.2664 13.1615 23.0513C12.6821 22.8166 12.1733 22.621 11.6351 22.4939C12.1733 22.3668 12.6821 22.1712 13.1713 21.9365C13.592 21.7214 13.9932 21.4769 14.365 21.1835C14.6292 20.9782 14.8738 20.7532 15.1184 20.5186C15.4804 20.147 15.8131 19.746 16.0969 19.3158C16.2632 19.0615 16.4197 18.7975 16.5567 18.5237C17.4667 16.7341 17.6037 14.7979 17.1145 13.1355C18.6506 14.7392 20.8521 15.4629 22.9754 15.3455C25.0106 15.2282 26.7522 14.3774 27.9459 13.1355C26.7816 17.0862 29.3745 21.5356 33.4253 22.4939C30.4116 23.2077 28.1612 25.8774 27.7405 28.8991C27.6035 29.8965 27.672 30.9135 27.9459 31.8621ZM22.5351 34.0623C22.8091 35.1869 23.2396 36.2723 23.8169 37.2893C22.8384 38.4237 22.1926 38.3748 21.2533 37.2893C21.8208 36.2723 22.2611 35.1869 22.5351 34.0623ZM15.0793 33.8178C14.4139 33.9547 13.7192 33.9939 13.0637 33.9645C13.3963 32.1359 14.9325 30.982 16.5176 30.1214C16.4687 31.422 15.9892 32.7422 15.0793 33.8178ZM15.7055 36.0963C15.3532 36.1746 14.9716 36.1941 14.6977 36.0376C14.4335 35.8812 14.2574 35.5487 14.1497 35.2162C14.5509 35.1575 14.9521 35.0598 15.3532 34.9131C15.4413 35.3238 15.5587 35.7247 15.7055 36.0963ZM8.9835 21.7116H8.97372C8.61169 21.3009 8.30837 20.851 8.04419 20.3914C7.97569 20.2839 7.91699 20.1665 7.85828 20.0492C9.62928 19.4331 11.3709 20.1567 12.9071 21.1053C12.4179 21.3595 11.8993 21.5551 11.3514 21.6725C10.5979 21.8289 9.81519 21.8583 8.9835 21.7116ZM12.8973 23.8923C11.3611 24.831 9.6195 25.5645 7.84849 24.9484C8.15182 24.3714 8.53341 23.7847 8.97372 23.286H8.9835C9.8054 23.1491 10.5882 23.1784 11.322 23.3349C11.8797 23.4424 12.4081 23.638 12.8973 23.8923ZM12.3298 19.7754C11.3416 19.2864 10.3142 18.9637 9.25747 18.9539C8.6704 18.9442 8.07354 19.0322 7.4669 19.2473C7.22228 18.6801 6.94832 17.8783 6.7722 17.2817C7.49625 17.1546 8.21052 17.0959 8.92479 17.0959C10.1185 17.0959 11.2927 17.2817 12.4179 17.6338C13.0049 17.8196 13.5822 18.0445 14.14 18.3183C14.5313 18.5041 14.9129 18.7192 15.2945 18.9442C15.1478 19.1593 14.9814 19.3646 14.8053 19.57C14.59 19.8145 14.365 20.0492 14.1204 20.2545C13.9932 20.3621 13.866 20.4697 13.729 20.5772C13.2789 20.2839 12.8093 20.0101 12.3298 19.7754ZM7.32013 21.5942C7.57453 21.9072 7.85828 22.2103 8.18117 22.4939C7.85828 22.7775 7.57453 23.0806 7.32013 23.3935C6.68413 22.6895 6.74284 22.2396 7.32013 21.5942ZM7.47668 25.7503C9.65863 26.5228 11.7917 25.672 13.7388 24.4301C13.8758 24.5279 14.003 24.6452 14.14 24.7528C14.59 25.144 15.0303 25.6622 15.3043 26.0534C12.8093 27.5985 9.86411 28.2439 6.78198 27.7158C6.9581 27.1095 7.23207 26.3174 7.47668 25.7503ZM15.0695 11.1699C15.999 12.275 16.4687 13.5951 16.5078 14.8761C14.9325 14.0254 13.3865 12.8617 13.0539 11.033C13.7094 11.0135 14.4139 11.0428 15.0695 11.1699ZM14.1497 9.79111C14.4139 8.98924 14.7759 8.71544 15.7055 8.90123C15.5587 9.28261 15.4413 9.67377 15.3532 10.0845C14.9521 9.94757 14.5509 9.84979 14.1497 9.79111ZM21.2533 7.70821C22.2122 6.59342 22.858 6.59342 23.8169 7.70821C23.2396 8.72521 22.8091 9.81067 22.5351 10.945C22.2611 9.81067 21.8208 8.72521 21.2533 7.70821ZM29.9909 11.1797C30.0887 11.0819 31.4781 11.0233 31.6151 11.033C31.7423 11.033 31.8793 11.033 32.0065 11.0428C31.6738 12.8715 30.1377 14.0254 28.5526 14.8859C28.6015 13.5755 29.0809 12.2652 29.9909 11.1797ZM29.3647 8.90123C30.2257 8.71544 30.6465 8.95013 30.9204 9.79111C30.5193 9.85956 30.1181 9.94757 29.7169 10.0943C29.6289 9.67377 29.5115 9.28261 29.3647 8.90123ZM33.7482 21.6725C33.1904 21.5551 32.6621 21.3595 32.1729 21.1053C33.709 20.1665 35.4507 19.4331 37.2217 20.0492C36.3313 21.7409 36.1454 22.181 33.7482 21.6725ZM37.2119 24.9484C35.4409 25.5645 33.6992 24.831 32.1631 23.8923C33.3176 23.286 34.6973 23.0415 36.0769 23.2762H36.0867C36.5368 23.7945 36.9184 24.3714 37.2119 24.9484ZM31.3314 24.4301C33.2883 25.6818 35.4213 26.5326 37.6033 25.76C37.8675 26.3663 38.1023 27.09 38.298 27.7256C37.5739 27.8527 36.8596 27.9114 36.1454 27.9114C34.9517 27.9114 33.7775 27.7256 32.6425 27.3736C31.6151 27.0606 30.6367 26.5912 29.7659 26.0632C30.1475 25.5156 30.7247 24.8799 31.3314 24.4301ZM37.75 23.4033C37.4956 23.0904 37.2119 22.7873 36.889 22.5037C37.2119 22.2201 37.4956 21.9267 37.75 21.604C38.386 22.3179 38.3273 22.7677 37.75 23.4033ZM37.6033 19.2473C35.9595 18.6703 34.3157 19.0028 32.7404 19.7754C32.2609 20.0101 31.7913 20.2839 31.3412 20.5772C30.7247 20.1176 30.1572 19.4918 29.7756 18.9442C30.6465 18.4063 31.6249 17.9565 32.6327 17.6338C33.7677 17.2817 34.9517 17.0959 36.1454 17.0959C36.8596 17.0959 37.5739 17.1546 38.298 17.2817C38.1023 17.9174 37.8577 18.6312 37.6033 19.2473ZM35.2648 14.1329C36.1845 14.4361 36.4878 14.8957 36.0182 16.2158C34.8538 16.2256 33.709 16.3919 32.5936 16.7146C33.4351 15.9127 34.1591 15.0033 34.756 13.996C34.9027 14.0254 35.0886 14.0743 35.2648 14.1329ZM33.8069 11.2482C34.1885 11.3166 34.5701 11.3948 34.9419 11.4829C34.6875 12.1772 34.3842 12.8323 34.0221 13.4484C32.8578 15.4531 31.165 16.9982 29.2375 18.0152C28.9537 17.4284 28.6896 16.607 28.6015 15.854C30.6465 14.8077 32.5055 13.3702 32.8969 11.1015C33.2002 11.1504 33.5036 11.1993 33.8069 11.2482ZM32.5447 5.19503C32.6621 6.56408 33.0241 7.91357 33.3568 9.24349C32.985 9.3804 32.6327 9.53686 32.2805 9.69332C32.1337 9.69332 31.9772 9.69332 31.8304 9.7031C31.3705 8.13848 30.578 7.68865 28.9831 8.07981C28.9146 7.96246 28.8559 7.84511 28.7874 7.72777C28.7483 7.32683 28.6993 6.9259 28.6308 6.52496C29.9518 6.14359 31.302 5.78177 32.5447 5.19503ZM28.6308 10.3876C28.1416 11.7176 27.2414 12.7932 26.1358 13.4778C26.0869 11.6784 26.3217 9.80089 27.7405 8.58831C28.1025 9.14571 28.4156 9.77155 28.6308 10.3876ZM27.2414 7.85489C25.4802 9.34128 25.1476 11.6295 25.265 13.9374C24.5703 14.2307 23.7484 14.4165 23.0732 14.4654C23.0439 13.4582 23.1319 12.3923 23.3668 11.346C23.7973 9.43907 24.6779 7.72777 25.8814 6.27071C26.3119 6.72054 26.8696 7.35617 27.2414 7.85489ZM22.5351 2.51562C23.3276 3.64019 24.3061 4.62786 25.265 5.61553C24.9225 6.02624 24.4724 6.64231 24.3061 6.90634C23.0439 5.60575 22.0263 5.61553 20.7739 6.90634C20.588 6.62275 20.1379 6.00668 19.8052 5.61553C20.7641 4.62786 21.7425 3.64997 22.5351 2.51562ZM19.1888 6.27071C21.1848 8.66654 22.0948 11.522 22.0067 14.4654C21.3414 14.4165 20.5097 14.2307 19.815 13.9374C19.9226 11.6393 19.5997 9.35106 17.8385 7.85489C18.2005 7.35617 18.7583 6.72054 19.1888 6.27071ZM18.9344 13.4778C17.8287 12.7932 16.9285 11.7176 16.4393 10.3876C16.6546 9.76178 16.9677 9.13593 17.3297 8.58831C18.7485 9.80089 18.9735 11.6784 18.9344 13.4778ZM12.5255 5.19503C13.7779 5.78177 15.1184 6.14359 16.4491 6.52496C16.3708 6.9259 16.3219 7.33661 16.2828 7.74732C16.2143 7.85489 16.1556 7.97224 16.0969 8.08959C14.4237 7.66909 13.6899 8.25583 13.2593 9.71288C13.1126 9.7031 12.956 9.7031 12.8093 9.7031C12.457 9.53686 12.095 9.39018 11.7232 9.25327C12.0461 7.90379 12.4081 6.56408 12.5255 5.19503ZM12.1733 11.1113C12.5646 13.3702 14.4139 14.8175 16.4687 15.8638C16.3806 16.5972 16.1262 17.3991 15.8327 18.0249C15.4413 17.8196 15.0597 17.5849 14.6977 17.3404C12.5255 15.8736 10.9698 13.82 10.1185 11.4829C10.7741 11.3362 11.5177 11.1895 12.1733 11.1113ZM10.324 13.996C10.9208 15.0033 11.6449 15.9127 12.4864 16.7146C11.3709 16.3919 10.2261 16.2256 9.05199 16.2158C8.57255 14.8272 8.87587 14.2698 10.324 13.996ZM5.1871 12.5096C6.55694 12.3923 7.9072 12.0403 9.24768 11.698C9.41402 12.1772 9.71734 12.8617 9.87389 13.1844C8.19095 13.5951 7.62345 14.4752 8.11268 16.2354C7.78979 16.255 7.02659 16.3332 6.50801 16.4212C6.14599 15.0913 5.77417 13.7516 5.1871 12.5096ZM2.50614 22.4939C3.64114 21.7116 4.62938 20.7337 5.61762 19.7754C5.93073 20.0394 6.2634 20.2839 6.59607 20.5186C6.66457 20.6359 6.72327 20.7435 6.80155 20.8608C5.74482 21.9561 5.59805 22.8948 6.80155 24.1465C6.73306 24.2541 6.67435 24.3617 6.60586 24.4692C6.27318 24.7039 5.94051 24.9484 5.62741 25.2222C4.62938 24.2639 3.64114 23.286 2.50614 22.4939ZM9.24768 33.2996C7.9072 32.9671 6.56672 32.615 5.1871 32.4879C5.77417 31.246 6.1362 29.9063 6.5178 28.5764C7.02659 28.6644 7.79957 28.7426 8.12246 28.7622C7.6528 30.3855 8.07354 31.3633 9.88368 31.8132C9.72713 32.1261 9.42381 32.8204 9.24768 33.2996ZM9.05199 28.7817C10.2164 28.7622 11.3709 28.6057 12.4864 28.283C11.6449 29.0849 10.9208 30.0041 10.324 31.0015C8.81716 30.7179 8.59212 30.1116 9.05199 28.7817ZM10.1283 33.5147C11.1557 30.6886 13.1615 28.3906 15.8327 26.9824C16.1066 27.5398 16.3806 28.3612 16.4687 29.1435C14.4237 30.1899 12.5646 31.6274 12.1733 33.8961C11.5177 33.8081 10.7741 33.6614 10.1283 33.5147ZM12.5157 39.8025C12.3983 38.4237 12.0461 37.0938 11.7036 35.7541C12.0754 35.6172 12.4374 35.4607 12.7897 35.3042C12.9365 35.3042 13.093 35.3042 13.2398 35.2945C13.6996 36.8591 14.4922 37.3089 16.0871 36.9177C16.1556 37.0351 16.2143 37.1524 16.2828 37.2698C16.3219 37.6707 16.361 38.0717 16.4393 38.4726C15.1086 38.8637 13.7779 39.2158 12.5157 39.8025ZM17.1242 36.0768C16.8601 35.6172 16.6252 35.1282 16.4393 34.6099C16.9188 33.28 17.8189 32.2141 18.9344 31.5198C18.9833 33.3191 18.7485 35.1967 17.3297 36.4092C17.2514 36.3017 17.1829 36.1941 17.1242 36.0768ZM18.406 37.8663C18.2005 37.6316 18.0048 37.3969 17.8287 37.1524C18.3179 36.7417 18.6898 36.2723 18.9735 35.7638C19.7661 34.3655 19.8835 32.6737 19.8052 31.07C20.5097 30.7766 21.3316 30.5908 21.9969 30.5419C22.085 33.5049 21.1652 36.3604 19.179 38.7366C18.9246 38.4433 18.6604 38.1597 18.406 37.8663ZM22.5351 42.4819C21.7425 41.3476 20.7641 40.3697 19.8052 39.3722C20.0694 39.0593 20.314 38.7366 20.539 38.4041C20.6173 38.2966 20.6956 38.189 20.7641 38.0814C20.8032 38.1206 20.8424 38.1597 20.8815 38.1988C21.3316 38.6291 21.9578 39.0593 22.5253 39.0593C23.1515 39.0593 23.856 38.5313 24.2963 38.0814C24.492 38.3748 24.9323 38.9909 25.265 39.3722C24.3061 40.3697 23.3276 41.3476 22.5351 42.4819ZM25.8814 38.7268C23.9049 36.3604 22.9754 33.4951 23.0634 30.5321C23.7288 30.581 24.5605 30.7668 25.2552 31.0602C25.1476 33.3582 25.4704 35.6563 27.2317 37.1427C26.8696 37.6414 26.3119 38.2672 25.8814 38.7268ZM26.1456 31.5198C27.2512 32.2141 28.1514 33.28 28.6406 34.6099C28.4156 35.2358 28.1025 35.8616 27.7502 36.4092C26.3217 35.1967 26.0967 33.3191 26.1456 31.5198ZM32.5544 39.8025C31.302 39.2158 29.9615 38.8637 28.6308 38.4726C28.7091 38.0619 28.758 37.6609 28.7972 37.2502C28.8657 37.1427 28.9244 37.0253 28.9831 36.9177C30.6758 37.3285 31.3999 36.7319 31.8304 35.2945C31.9772 35.3042 32.1239 35.3042 32.2805 35.3042C32.6327 35.4705 32.9948 35.6172 33.3666 35.7541C33.0241 37.0938 32.6621 38.4335 32.5544 39.8025ZM32.8969 33.8863C32.6034 32.1652 31.4488 30.9037 30.0007 29.9454C29.5506 29.652 29.0809 29.3782 28.6015 29.1338C28.6211 28.9675 28.6504 28.8013 28.6798 28.635C28.7972 28.0385 29.032 27.3931 29.2375 26.9726C30.1279 27.442 31.0281 28.0679 31.8304 28.8013C33.2492 30.1116 34.3059 31.7154 34.9517 33.5049C34.2961 33.6614 33.5525 33.8081 32.8969 33.8863ZM34.7462 31.0015C34.1493 30.0041 33.4253 29.0849 32.5838 28.283C33.6992 28.6057 34.844 28.7719 36.0084 28.7817C36.0573 28.9284 36.116 29.1142 36.1552 29.3098C36.2334 29.6912 36.2628 30.1116 36.0671 30.3659C35.8029 30.7375 35.1963 30.9135 34.7462 31.0015ZM39.8831 32.4879C38.5132 32.6053 37.163 32.9671 35.8225 33.2996C35.6561 32.8204 35.3528 32.1359 35.1963 31.8229C36.9966 31.3731 37.3587 30.4441 36.9966 28.9382C36.9868 28.8795 36.9673 28.8306 36.9575 28.7719C37.0847 28.7622 37.2217 28.7524 37.3489 28.7328C37.75 28.7035 38.1512 28.6546 38.5622 28.5764C38.934 29.9063 39.296 31.246 39.8831 32.4879ZM39.4525 25.2222C39.1394 24.9582 38.8068 24.7137 38.4839 24.4888C38.4154 24.3714 38.3469 24.2541 38.2784 24.1465C39.3449 23.0317 39.4721 22.1027 38.2784 20.8608C38.3469 20.7532 38.4056 20.6457 38.4741 20.5283C38.8068 20.2936 39.1394 20.0394 39.4525 19.7754C40.4506 20.7337 41.429 21.7116 42.564 22.5037C41.429 23.286 40.4408 24.2639 39.4525 25.2222Z" fill="#FFBF35"/>
<path d="M69.4517 27.1319L56.8697 15.075C56.2063 14.518 54.9348 13.415 53 13.415V13.5461C55.1007 14.1467 55.3108 16.32 55.3108 17.8162V32.6034H56.5048V18.8974L70.6458 32.6034V13.415H69.4517V27.1319ZM82.4317 13C77.2574 13 73.0671 16.2545 73.0671 22.96C73.0671 29.9059 77.2574 32.9419 82.4317 32.9419C87.606 32.9419 91.7963 29.9059 91.7963 22.96C91.7963 16.1999 87.606 13 82.4317 13ZM82.4317 32.0573C79.0374 32.0573 76.2513 29.3052 76.2513 22.96C76.2513 16.8551 79.0374 13.8628 82.4317 13.8628C85.8591 13.8628 88.6121 16.8005 88.6121 22.96C88.6121 29.3052 85.8591 32.0573 82.4317 32.0573ZM109.133 26.422C109.133 31.2492 104.566 31.8498 103.029 31.8498C103.029 31.8498 98.0984 32.1884 98.0984 26.422V13.415H92.8135V13.5461C94.4277 13.9938 95.1796 14.9658 95.1796 16.0907V26.422C95.1796 33.3679 102.764 32.9965 102.764 32.9965C110.117 32.9965 110.327 27.6015 110.327 26.422V13.415H109.133V26.422ZM132.959 32.3413C131.875 32.0246 131.123 31.0307 131.123 29.9277V13.415H128.205V22.3485H118.442V14.9876C118.442 14.5399 118.254 14.1467 117.989 13.8628C117.701 13.5788 117.303 13.415 116.85 13.415H113.157V13.5461L113.632 13.6553C113.655 13.6553 113.688 13.6771 113.71 13.6771C114.793 13.9611 115.512 14.9658 115.512 16.0579V32.5925H118.431V23.3532H128.193V31.0307C128.193 31.8717 128.879 32.5488 129.73 32.6034H133.467V32.4723L132.992 32.3413H132.959ZM144.059 13C138.885 13 134.695 16.2545 134.695 22.96C134.695 29.9059 138.885 32.9419 144.059 32.9419C149.234 32.9419 153.424 29.9059 153.424 22.96C153.424 16.1999 149.234 13 144.059 13ZM144.059 32.0573C140.665 32.0573 137.879 29.3052 137.879 22.96C137.879 16.8551 140.665 13.8628 144.059 13.8628C147.487 13.8628 150.24 16.8005 150.24 22.96C150.24 29.3052 147.487 32.0573 144.059 32.0573ZM153.8 14.5945H160.246V32.6034H163.164V14.5945H169.588V13.415H153.8V14.5945ZM171.589 13.5461C173.203 13.9938 173.955 14.9658 173.955 16.0907V32.6034H186.195V31.6096H176.885V23.2003H184.658V22.0208H176.885V14.4197H186.195V13.415H171.6V13.5461H171.589ZM193.182 31.4239V13.415H188.196V13.5461C189.81 13.9938 190.529 14.9658 190.529 16.0907V32.6034H203V31.4239H193.182Z" fill="black"/>
</svg>
