<svg xmlns="http://www.w3.org/2000/svg" width="100" height="100" viewBox="0 0 100 100" fill="none"><path d="M87.868 39.8381C94.4998 18.8678 99.5877 27.1255 77.7356 22.3448C73.0173 0.787742 81.3667 5.5468 60.2104 12.2834C45.2727 -4.1017 54.8833 -4.07997 39.989 12.2616C18.6805 5.50334 27.2256 0.874666 22.4638 22.3448C1.32923 26.9517 5.63443 18.8026 12.3314 39.9033C-3.99791 54.8107 -4.21534 45.1404 12.3097 60.1565C5.67791 81.1485 0.589953 72.869 22.4421 77.6498C25.5297 91.7097 24.1816 94.6868 26.0515 93.296C30.1393 90.2537 35.2055 89.2541 39.9673 87.7329C43.3375 91.4272 47.2296 94.8172 49.23 99.5111C49.5126 100.163 50.665 100.163 50.9477 99.5111C52.9481 94.8389 56.8184 91.4489 60.1887 87.7764C64.9722 89.2975 70.0602 90.2754 74.1262 93.3178C74.7133 93.7524 75.7135 93.1656 75.6265 92.4485C74.9742 87.407 76.6484 82.5393 77.7138 77.6933C91.8906 74.6075 94.8694 75.8896 93.4561 74.0208C90.3468 69.9571 89.3683 64.8938 87.8463 60.1347C103.654 45.662 104.436 54.8976 87.868 39.8381ZM78.5618 28.5381C78.9532 27.7123 79.3011 26.8648 79.6055 25.9955C82.5844 26.7344 85.5632 27.5167 88.629 27.7992C87.3244 30.5808 86.5199 33.5362 85.6719 36.4916C84.5413 36.296 82.8235 36.1221 82.106 36.0787C83.128 32.4496 82.2147 30.4721 78.5401 29.4073C78.4314 29.3856 78.3227 29.3421 78.1922 29.3204C78.3227 29.0596 78.4314 28.7988 78.5618 28.5381ZM63.4502 66.9365C66.9509 68.8271 70.3863 71.413 71.1256 75.4767C68.7773 75.5636 63.7763 76.1069 63.4502 66.9365ZM68.7121 78.2583C68.1467 80.0185 67.3422 80.6704 65.2549 80.2358C65.581 79.3883 65.8419 78.519 66.0376 77.6063C66.9291 77.8888 67.8206 78.1062 68.7121 78.2583ZM62.1021 70.8046C55.753 64.1767 44.2942 64.2853 38.0321 70.8046C39.7281 65.0024 37.8147 58.657 33.6182 54.3978C33.0964 53.8762 32.531 53.3764 31.944 52.9201C31.1177 52.2682 30.2045 51.7032 29.2478 51.2251C28.1823 50.7035 27.0517 50.2689 25.8558 49.9864C27.0517 49.7039 28.1823 49.2693 29.2695 48.7478C30.2045 48.2697 31.096 47.7264 31.9222 47.0745C32.5093 46.6181 33.0529 46.1183 33.5965 45.5968C34.401 44.771 35.1402 43.88 35.7708 42.9239C36.1404 42.3589 36.4883 41.7722 36.7927 41.1637C38.8149 37.1869 39.1193 32.8842 38.0321 29.19C41.4458 32.7538 46.3381 34.3619 51.0564 34.1012C55.579 33.8404 59.4494 31.9498 62.1021 29.19C59.5146 37.9693 65.2766 47.8568 74.2784 49.9864C67.5814 51.5728 62.5804 57.5053 61.6455 64.2201C61.3411 66.4367 61.4933 68.6967 62.1021 70.8046ZM50.078 75.694C50.6868 78.1931 51.6435 80.6052 52.9264 82.8652C50.752 85.386 49.3169 85.2773 47.2296 82.8652C48.4907 80.6052 49.4692 78.1931 50.078 75.694ZM33.5095 75.1508C32.0309 75.455 30.4871 75.5419 29.0303 75.4767C29.7696 71.413 33.1833 68.8488 36.7058 66.9365C36.597 69.8267 35.5316 72.7604 33.5095 75.1508ZM34.9011 80.214C34.1183 80.3879 33.2703 80.4314 32.6615 80.0837C32.0744 79.736 31.683 78.9971 31.4439 78.2583C32.3353 78.1279 33.2268 77.9106 34.1183 77.5846C34.314 78.4973 34.5749 79.3883 34.9011 80.214ZM19.9633 48.248H19.9416C19.1371 47.3353 18.463 46.3356 17.876 45.3143C17.7238 45.0752 17.5933 44.8145 17.4628 44.5537C21.3984 43.1847 25.2687 44.7927 28.6824 46.9006C27.5953 47.4656 26.4429 47.9003 25.2252 48.161C23.551 48.5087 21.8115 48.5739 19.9633 48.248ZM28.6607 53.0939C25.247 55.1801 21.3767 56.8099 17.4411 55.4409C18.1151 54.1587 18.9631 52.8549 19.9416 51.7466H19.9633C21.7898 51.4424 23.5293 51.5076 25.16 51.8553C26.3994 52.0943 27.5735 52.5289 28.6607 53.0939ZM27.3996 43.9452C25.2035 42.8587 22.9204 42.1416 20.5722 42.1198C19.2675 42.0981 17.9412 42.2937 16.5931 42.7718C16.0495 41.5114 15.4407 39.7295 15.0493 38.4039C16.6583 38.1214 18.2456 37.991 19.8329 37.991C22.4856 37.991 25.0948 38.4039 27.5953 39.1862C28.8999 39.5991 30.1827 40.0989 31.4221 40.7073C32.2919 41.1202 33.1398 41.5983 33.9878 42.0981C33.6617 42.5762 33.2921 43.0325 32.9007 43.4889C32.4223 44.0322 31.9222 44.5537 31.3786 45.0101C31.096 45.2491 30.8133 45.4881 30.5089 45.7272C29.5087 45.0752 28.465 44.4668 27.3996 43.9452ZM16.267 47.9872C16.8323 48.6826 17.4628 49.3562 18.1804 49.9864C17.4628 50.6166 16.8323 51.2903 16.267 51.9857C14.8536 50.421 14.9841 49.4214 16.267 47.9872ZM16.6149 57.2228C21.4636 58.9395 26.2037 57.049 30.5306 54.2891C30.835 54.5064 31.1177 54.7672 31.4221 55.0062C32.4223 55.8755 33.4008 57.0272 34.0096 57.8965C28.465 61.3299 21.9202 62.7642 15.0711 61.5907C15.4624 60.2434 16.0713 58.4832 16.6149 57.2228ZM33.4877 24.8221C35.5534 27.2777 36.597 30.2113 36.684 33.0581C33.1833 31.1675 29.7479 28.5815 29.0086 24.5178C30.4654 24.4744 32.0309 24.5396 33.4877 24.8221ZM31.4439 21.758C32.0309 19.9761 32.8354 19.3676 34.9011 19.7805C34.5749 20.628 34.314 21.4973 34.1183 22.41C33.2268 22.1057 32.3353 21.8884 31.4439 21.758ZM47.2296 17.1294C49.3604 14.652 50.7955 14.652 52.9264 17.1294C51.6435 19.3894 50.6868 21.8015 50.078 24.3223C49.4692 21.8015 48.4907 19.3894 47.2296 17.1294ZM66.6464 24.8438C66.8639 24.6265 69.9514 24.4961 70.2559 24.5178C70.5385 24.5178 70.8429 24.5178 71.1256 24.5396C70.3863 28.6032 66.9726 31.1675 63.4502 33.0798C63.5589 30.1679 64.6243 27.2559 66.6464 24.8438ZM65.2549 19.7805C67.1683 19.3676 68.1033 19.8892 68.7121 21.758C67.8206 21.9101 66.9291 22.1057 66.0376 22.4317C65.8419 21.4973 65.581 20.628 65.2549 19.7805ZM74.9959 48.161C73.7565 47.9003 72.5824 47.4656 71.4952 46.9006C74.9089 44.8145 78.7793 43.1847 82.7148 44.5537C80.7362 48.3131 80.3231 49.291 74.9959 48.161ZM82.6931 55.4409C78.7575 56.8099 74.8872 55.1801 71.4735 53.0939C74.0392 51.7466 77.105 51.2033 80.1709 51.7249H80.1926C81.1928 52.8766 82.0408 54.1587 82.6931 55.4409ZM69.6253 54.2891C73.974 57.0707 78.714 58.9613 83.5628 57.2445C84.1499 58.5918 84.6717 60.1999 85.1066 61.6124C83.4976 61.8949 81.9103 62.0253 80.3231 62.0253C77.6704 62.0253 75.0611 61.6124 72.5389 60.8301C70.2559 60.1347 68.0815 59.0917 66.1463 57.9182C66.9943 56.7013 68.2772 55.2888 69.6253 54.2891ZM83.889 52.0074C83.3236 51.312 82.6931 50.6383 81.9756 50.0082C82.6931 49.378 83.3236 48.726 83.889 48.0089C85.3023 49.5953 85.1718 50.5949 83.889 52.0074ZM83.5628 42.7718C79.9099 41.4897 76.257 42.2285 72.7563 43.9452C71.6909 44.4668 70.6472 45.0752 69.647 45.7272C68.2772 44.7058 67.0161 43.315 66.1681 42.0981C68.1033 40.9029 70.2776 39.9033 72.5172 39.1862C75.0394 38.4039 77.6704 37.991 80.3231 37.991C81.9103 37.991 83.4976 38.1214 85.1066 38.4039C84.6717 39.8164 84.1281 41.4027 83.5628 42.7718ZM78.3661 31.4065C80.41 32.0802 81.0841 33.1015 80.0404 36.0352C77.4529 36.0569 74.9089 36.4264 72.4302 37.1435C74.3001 35.3616 75.9091 33.3406 77.2355 31.1023C77.5616 31.1675 77.9748 31.2761 78.3661 31.4065ZM75.1264 24.9959C75.9744 25.148 76.8224 25.3219 77.6486 25.5175C77.0833 27.0604 76.4092 28.5163 75.6047 29.8854C73.0173 34.3402 69.2557 37.7737 64.9722 40.0337C64.3416 38.7298 63.7546 36.9044 63.5589 35.2312C68.1033 32.906 72.2345 29.7115 73.1042 24.67C73.7783 24.7786 74.4523 24.8873 75.1264 24.9959ZM72.3215 11.5445C72.5824 14.5868 73.3869 17.5857 74.1262 20.5411C73.2999 20.8453 72.5172 21.193 71.7344 21.5407C71.4083 21.5407 71.0604 21.5407 70.7342 21.5624C69.7123 18.0855 67.951 17.0859 64.4069 17.9551C64.2547 17.6944 64.1242 17.4336 63.972 17.1728C63.885 16.2819 63.7763 15.3909 63.6241 14.4999C66.5595 13.6524 69.5601 12.8484 72.3215 11.5445ZM63.6241 23.0836C62.5369 26.039 60.5365 28.4294 58.0795 29.9506C57.9708 25.9521 58.4927 21.7798 61.6455 19.0851C62.45 20.3238 63.1458 21.7146 63.6241 23.0836ZM60.5365 17.4553C56.6227 20.7584 55.8835 25.8434 56.1444 30.9719C54.6006 31.6238 52.7741 32.0367 51.2739 32.1454C51.2086 29.9071 51.4043 27.5384 51.9262 25.2132C52.8829 20.9757 54.8398 17.1728 57.5142 13.9349C58.4709 14.9345 59.7103 16.347 60.5365 17.4553ZM50.078 5.59026C51.8392 8.08931 54.0135 10.2841 56.1444 12.4789C55.3834 13.3916 54.3832 14.7607 54.0135 15.3474C51.2086 12.4572 48.9473 12.4789 46.1642 15.3474C45.751 14.7172 44.7508 13.3482 44.0116 12.4789C46.1424 10.2841 48.3168 8.11104 50.078 5.59026ZM42.6417 13.9349C47.0774 19.259 49.0995 25.6044 48.9038 32.1454C47.4253 32.0367 45.5771 31.6238 44.0333 30.9719C44.2725 25.8652 43.5549 20.7801 39.6411 17.4553C40.4456 16.347 41.685 14.9345 42.6417 13.9349ZM42.0764 29.9506C39.6194 28.4294 37.619 26.039 36.5318 23.0836C37.0102 21.6928 37.706 20.3021 38.5105 19.0851C41.6633 21.7798 42.1634 25.9521 42.0764 29.9506ZM27.8345 11.5445C30.6176 12.8484 33.5965 13.6524 36.5536 14.4999C36.3796 15.3909 36.2709 16.3036 36.1839 17.2163C36.0317 17.4553 35.9013 17.7161 35.7708 17.9769C32.0527 17.0424 30.4219 18.3463 29.4652 21.5842C29.1391 21.5624 28.7912 21.5624 28.465 21.5624C27.6822 21.193 26.8777 20.8671 26.0515 20.5628C26.769 17.564 27.5735 14.5868 27.8345 11.5445ZM27.0517 24.6917C27.9214 29.7115 32.0309 32.9277 36.597 35.2529C36.4014 36.8827 35.836 38.6646 35.1837 40.0554C34.314 39.5991 33.466 39.0775 32.6615 38.5343C27.8345 35.2746 24.3773 30.7111 22.4856 25.5175C23.9424 25.1915 25.5949 24.8655 27.0517 24.6917ZM22.9422 31.1023C24.2685 33.3406 25.8775 35.3616 27.7475 37.1435C25.2687 36.4264 22.7248 36.0569 20.1155 36.0352C19.0501 32.9494 19.7242 31.7108 22.9422 31.1023ZM11.5269 27.7992C14.571 27.5384 17.5716 26.7561 20.5504 25.9955C20.92 27.0604 21.5941 28.5815 21.942 29.2986C18.2021 30.2113 16.941 32.1671 18.0282 36.0787C17.3106 36.1221 15.6147 36.296 14.4623 36.4916C13.6577 33.5362 12.8315 30.559 11.5269 27.7992ZM5.56919 49.9864C8.09143 48.248 10.2875 46.0749 12.4836 43.9452C13.1794 44.532 13.9187 45.0752 14.6579 45.5968C14.8101 45.8576 14.9406 46.0966 15.1146 46.3574C12.7663 48.7912 12.4401 50.8774 15.1146 53.6589C14.9624 53.898 14.8319 54.137 14.6797 54.3761C13.9404 54.8976 13.2011 55.4409 12.5053 56.0493C10.2875 53.9197 8.09143 51.7466 5.56919 49.9864ZM20.5504 73.999C17.5716 73.2602 14.5927 72.4779 11.5269 72.1954C12.8315 69.4355 13.636 66.4584 14.484 63.503C15.6147 63.6986 17.3324 63.8724 18.0499 63.9159C17.0062 67.5232 17.9412 69.6963 21.9637 70.6959C21.6158 71.3913 20.9418 72.9342 20.5504 73.999ZM20.1155 63.9594C22.703 63.9159 25.2687 63.5682 27.7475 62.8511C25.8775 64.633 24.2685 66.6757 22.9422 68.8923C19.5937 68.2621 19.0936 66.9148 20.1155 63.9594ZM22.5073 74.4771C24.7904 68.1969 29.2478 63.0901 35.1837 59.9609C35.7925 61.1995 36.4014 63.0249 36.597 64.7634C32.0527 67.0886 27.9214 70.283 27.0517 75.3246C25.5949 75.129 23.9424 74.8031 22.5073 74.4771ZM27.8127 88.45C27.5518 85.386 26.769 82.4306 26.008 79.4535C26.8343 79.1492 27.6388 78.8015 28.4215 78.4538C28.7477 78.4538 29.0956 78.4538 29.4217 78.4321C30.4437 81.9091 32.2049 82.9087 35.7491 82.0394C35.9013 82.3002 36.0317 82.561 36.1839 82.8218C36.2709 83.7127 36.3579 84.6037 36.5318 85.4946C33.5747 86.3639 30.6176 87.1462 27.8127 88.45ZM38.0539 80.1706C37.4668 79.1492 36.9449 78.0627 36.5318 76.911C37.5972 73.9556 39.5976 71.5869 42.0764 70.044C42.1851 74.0425 41.6633 78.2148 38.5105 80.9094C38.3365 80.6704 38.1843 80.4314 38.0539 80.1706ZM40.9022 84.1473C40.4456 83.6258 40.0108 83.1043 39.6194 82.561C40.7066 81.6483 41.5328 80.6052 42.1634 79.4752C43.9246 76.3677 44.1855 72.6083 44.0116 69.0444C45.5771 68.3925 47.4035 67.9796 48.8821 67.8709C49.0778 74.4554 47.0339 80.8008 42.62 86.0814C42.0546 85.4295 41.4676 84.7993 40.9022 84.1473ZM50.078 94.4043C48.3168 91.8835 46.1424 89.7104 44.0116 87.4939C44.5986 86.7985 45.1422 86.0814 45.6423 85.3425C45.8163 85.1035 45.9902 84.8645 46.1424 84.6254C46.2294 84.7123 46.3164 84.7993 46.4033 84.8862C47.4035 85.8423 48.7951 86.7985 50.0562 86.7985C51.4478 86.7985 53.0133 85.625 53.9918 84.6254C54.4266 85.2773 55.4051 86.6464 56.1444 87.4939C54.0135 89.7104 51.8392 91.8835 50.078 94.4043ZM57.5142 86.0596C53.122 80.8008 51.0564 74.4336 51.2521 67.8492C52.7307 67.9578 54.5789 68.3707 56.1226 69.0227C55.8835 74.1294 56.601 79.2362 60.5148 82.5393C59.7103 83.6475 58.4709 85.0383 57.5142 86.0596ZM58.1013 70.044C60.5583 71.5869 62.5587 73.9556 63.6459 76.911C63.1458 78.3017 62.45 79.6925 61.6672 80.9094C58.4927 78.2148 57.9926 74.0425 58.1013 70.044ZM72.3432 88.45C69.5601 87.1462 66.5812 86.3639 63.6241 85.4946C63.7981 84.582 63.9068 83.691 63.9938 82.7783C64.146 82.5393 64.2764 82.2785 64.4069 82.0394C68.1685 82.9521 69.7775 81.6266 70.7342 78.4321C71.0604 78.4538 71.3865 78.4538 71.7344 78.4538C72.5172 78.8233 73.3217 79.1492 74.1479 79.4535C73.3869 82.4306 72.5824 85.4077 72.3432 88.45ZM73.1042 75.3029C72.4519 71.4782 69.8862 68.675 66.6682 66.5453C65.668 65.8934 64.6243 65.285 63.5589 64.7417C63.6024 64.3723 63.6676 64.0028 63.7328 63.6334C63.9937 62.3078 64.5156 60.8736 64.9722 59.9392C66.9509 60.9822 68.9513 62.373 70.7342 64.0028C73.887 66.9148 76.2353 70.4786 77.6704 74.4554C76.2135 74.8031 74.5611 75.129 73.1042 75.3029ZM77.2137 68.8923C75.8874 66.6757 74.2784 64.633 72.4085 62.8511C74.8872 63.5682 77.4312 63.9376 80.0186 63.9594C80.1274 64.2853 80.2578 64.6982 80.3448 65.1328C80.5187 65.9803 80.584 66.9148 80.1491 67.4798C79.562 68.3055 78.2139 68.6967 77.2137 68.8923ZM88.629 72.1954C85.585 72.4561 82.5844 73.2602 79.6055 73.999C79.2359 72.9342 78.5618 71.4131 78.2139 70.7177C82.2147 69.718 83.0192 67.6536 82.2147 64.3071C82.193 64.1767 82.1495 64.068 82.1278 63.9376C82.4104 63.9159 82.7148 63.8942 82.9975 63.8507C83.889 63.7855 84.7805 63.6769 85.6937 63.503C86.5199 66.4584 87.3244 69.4355 88.629 72.1954ZM87.6723 56.0493C86.9765 55.4626 86.2373 54.9193 85.5197 54.4195C85.3675 54.1587 85.2153 53.898 85.0631 53.6589C87.4332 51.1816 87.7158 49.1172 85.0631 46.3574C85.2153 46.1183 85.3458 45.8793 85.498 45.6185C86.2373 45.097 86.9765 44.532 87.6723 43.9452C89.8902 46.0749 92.0645 48.248 94.5867 50.0082C92.0645 51.7466 89.8684 53.9197 87.6723 56.0493Z" fill="#F9F6F0"></path></svg>