<svg width="145" height="149" viewBox="0 0 145 149" fill="none" xmlns="http://www.w3.org/2000/svg">
<path d="M3.17951 56.6102L12.3224 59.1343L13.0007 56.6527L3.85781 54.1144L4.73394 50.9238L2.43056 50.2857L0 59.1627L2.30338 59.8008L3.17951 56.6102Z" fill="white"/>
<path d="M15.5443 49.6334L11.8702 47.9176L12.5626 46.4145L17.2118 46.0316L18.4271 43.4224L13.255 43.9045C13.2409 42.4439 12.4637 41.1252 11.0506 40.4729C8.9733 39.4944 6.74057 40.4161 5.73726 42.5716L3.70237 46.925L14.4421 51.9732L15.5443 49.6334ZM10.5984 45.039L9.72225 46.9108L6.93841 45.6062L7.81454 43.7344C8.26674 42.7559 9.12874 42.4439 9.93422 42.8268C10.7397 43.1955 11.0506 44.0605 10.5984 45.039Z" fill="white"/>
<path d="M20.1369 40.8557L18.7803 38.8705L21.5359 35.0134L23.8534 35.6515L25.4785 33.3685L13.0289 30.348L11.6158 32.3333L18.5684 43.0679L20.1369 40.8557ZM14.8801 33.1699L19.2467 34.3753L17.4379 36.9136L14.8801 33.1699Z" fill="white"/>
<path d="M29.9298 29.1285L24.8143 17.4722L22.8077 19.4432L26.609 27.4977L18.5966 23.5981L16.5759 25.5976L28.2058 30.8301L29.9298 29.1285Z" fill="white"/>
<path d="M40.3869 21.0031L39.0162 19.032L35.116 21.7547L33.7311 19.741L37.1085 17.3729L35.7801 15.4585L32.4028 17.8267L31.0603 15.884L34.8051 13.2748L33.4485 11.3179L27.5982 15.4018L34.367 25.1863L40.3869 21.0031Z" fill="white"/>
<path d="M48.5971 16.7915L47.5373 14.6503L43.4675 16.6922L39.2423 8.16979L36.9389 9.30423L42.224 19.9679L48.5971 16.7915Z" fill="white"/>
<path d="M51.8755 13.1329L51.1266 10.7932L55.0409 9.51693L54.3202 7.30478L50.4059 8.58102L49.6852 6.34051L54.0235 4.92247L53.2887 2.66778L46.5057 4.87993L50.1657 16.2101L57.1323 13.9412L56.3834 11.6582L51.8755 13.1329Z" fill="white"/>
<path d="M65.1165 7.98545C66.3176 7.16298 66.9676 5.7733 66.7415 4.22763C66.4024 1.95875 64.4099 0.597431 62.05 0.951943L57.3161 1.66096L59.0825 13.4449L61.6261 13.062L61.0184 9.0348L62.6435 8.79373L65.5404 12.4665L68.3808 12.0411L65.1165 7.98545ZM62.7 6.38305L60.6651 6.69502L60.2129 3.64623L62.2478 3.33426C63.3077 3.17827 64.0425 3.71713 64.1697 4.59632C64.2969 5.48969 63.7599 6.22707 62.7 6.38305Z" fill="white"/>
<path d="M74.0332 9.98489C72.9875 9.95653 72.0549 9.38931 72.069 8.24069L69.483 8.18397C69.4265 10.7365 71.2777 12.3247 73.9908 12.3814C76.4497 12.4381 78.5128 11.2328 78.5693 8.66611C78.6259 6.00018 76.3649 5.39042 74.5702 4.87993C73.3267 4.55378 72.2951 4.27017 72.3092 3.43352C72.3234 2.6536 73.1712 2.31327 74.005 2.34163C74.9659 2.35581 75.7996 2.8663 75.7714 3.8873L78.3008 3.94402C78.3856 1.5617 76.8595 0.0585742 74.1321 0.0018524C71.5038 -0.0548694 69.808 1.19301 69.7515 3.47606C69.695 6.04272 71.857 6.60994 73.6376 7.09208C74.9235 7.41823 75.9975 7.70184 75.9692 8.62357C75.9551 9.51693 75.0083 9.99907 74.0332 9.98489Z" fill="white"/>
<path d="M81.9196 0.743842L81.2899 5.22308L83.5567 5.544L84.1864 1.06477L81.9196 0.743842Z" fill="white"/>
<path d="M94.0147 16.1817C96.7703 17.1886 99.6107 16.125 101.123 13.5442L98.6921 12.6508C97.7736 13.9271 96.3181 14.395 94.8485 13.8562C92.9549 13.1613 92.0787 11.1477 92.8136 9.13406C93.5484 7.12044 95.5268 6.11363 97.4062 6.80847C98.8193 7.31896 99.6248 8.55266 99.6107 10.0416L102.027 10.9208C102.479 8.07053 100.967 5.48969 98.2399 4.49706C94.9615 3.3059 91.57 4.90829 90.3547 8.24069C89.1677 11.5589 90.7363 14.9906 94.0147 16.1817Z" fill="white"/>
<path d="M103.143 20.1097L105.701 15.8981L109.517 18.2379L106.959 22.4495L109.149 23.7966L115.353 13.6293L113.162 12.2821L110.774 16.1959L106.959 13.8562L109.347 9.94235L107.157 8.59521L100.953 18.7484L103.143 20.1097Z" fill="white"/>
<path d="M115.098 29.327C117.727 31.8086 121.514 31.7377 123.945 29.1569C126.375 26.576 126.234 22.7757 123.605 20.2941C120.977 17.7983 117.162 17.8834 114.745 20.4501C112.329 23.0167 112.47 26.8313 115.098 29.327ZM116.639 22.2368C118.108 20.6769 120.398 20.5919 121.938 22.0525C123.478 23.513 123.521 25.7819 122.037 27.3559C120.553 28.93 118.292 29.0151 116.752 27.5545C115.226 26.0939 115.169 23.7966 116.639 22.2368Z" fill="white"/>
<path d="M130.247 27.8593L120.894 35.1714L122.474 37.2075L131.828 29.8953L130.247 27.8593Z" fill="white"/>
<path d="M126.644 44.1456C128.099 46.7122 130.939 47.7474 133.752 46.769L132.48 44.5143C130.968 44.883 129.54 44.3016 128.777 42.9403C127.788 41.1819 128.424 39.069 130.275 38.0196C132.127 36.9561 134.289 37.4808 135.278 39.2392C136.013 40.5438 135.843 42.0185 134.868 43.1388L136.14 45.3793C138.316 43.5075 138.839 40.5438 137.412 38.0196C135.688 34.9708 132.07 33.9924 128.989 35.7366C125.937 37.4666 124.92 41.0968 126.644 44.1456Z" fill="white"/>
<path d="M132.621 57.6312L134.868 56.8371L133.299 52.3419L135.603 51.5336L136.959 55.4332L139.164 54.6675L137.793 50.7679L140.012 49.9879L141.524 54.313L143.756 53.5189L141.397 46.769L130.205 50.7111L132.621 57.6312Z" fill="white"/>
<path d="M142.711 90.2179L141.778 93.3943L132.678 90.7284L131.957 93.1958L141.057 95.8617L140.139 99.0523L142.428 99.7188L145 90.8843L142.711 90.2179Z" fill="white"/>
<path d="M129.329 100.173L132.974 101.945L132.254 103.434L127.59 103.76L126.347 106.355L131.533 105.944C131.533 107.405 132.296 108.738 133.695 109.418C135.758 110.425 138.005 109.532 139.037 107.39L141.128 103.065L130.445 97.8753L129.329 100.173ZM134.204 104.838L135.094 102.98L137.864 104.327L136.973 106.185C136.507 107.149 135.645 107.447 134.84 107.064C134.048 106.681 133.737 105.816 134.204 104.838Z" fill="white"/>
<path d="M124.623 108.865L125.951 110.865L123.153 114.679L120.85 114.013L119.196 116.267L131.59 119.444L133.031 117.487L126.234 106.667L124.623 108.865ZM129.767 116.622L125.428 115.36L127.28 112.85L129.767 116.622Z" fill="white"/>
<path d="M114.674 120.479L119.649 132.206L121.669 130.249L117.967 122.152L125.937 126.151L127.986 124.18L116.427 118.806L114.674 120.479Z" fill="white"/>
<path d="M104.104 128.463L105.447 130.448L109.375 127.782L110.746 129.81L107.326 132.121L108.626 134.064L112.046 131.738L113.36 133.695L109.573 136.262L110.901 138.233L116.808 134.234L110.167 124.35L104.104 128.463Z" fill="white"/>
<path d="M95.8235 132.547L96.8551 134.702L100.953 132.731L105.065 141.31L107.369 140.204L102.239 129.455L95.8235 132.547Z" fill="white"/>
<path d="M87.3024 135.283L88.009 137.566L92.5309 136.163L93.2658 138.502L89.3232 139.722L90.0156 141.948L93.9441 140.729L94.6365 142.969L90.2841 144.33L90.9906 146.599L97.8019 144.486L94.2832 133.114L87.3024 135.283Z" fill="white"/>
<path d="M82.7239 136.106L83.275 140.133L81.6499 140.36L78.8096 136.645L75.9692 137.028L79.177 141.14C77.9617 141.948 77.2975 143.324 77.4954 144.869C77.8063 147.138 79.7846 148.528 82.1304 148.216L86.8785 147.564L85.2816 135.765L82.7239 136.106ZM81.975 145.834C80.9151 145.975 80.1944 145.422 80.0672 144.543C79.9542 143.65 80.4912 142.927 81.5652 142.785L83.6 142.501L84.0098 145.564L81.975 145.834Z" fill="white"/>
<path d="M70.3026 139.027C71.3483 139.07 72.281 139.651 72.2386 140.8L74.8246 140.885C74.9094 138.332 73.0864 136.73 70.3591 136.63C67.9003 136.545 65.823 137.722 65.7382 140.289C65.6535 142.955 67.9003 143.593 69.695 144.118C70.9385 144.458 71.956 144.756 71.9277 145.593C71.8994 146.372 71.0516 146.699 70.2178 146.67C69.2569 146.642 68.4373 146.131 68.4656 145.096L65.9361 145.011C65.8513 147.379 67.3492 148.897 70.0765 148.996C72.7049 149.081 74.4289 147.861 74.4996 145.578C74.5844 143.012 72.4364 142.416 70.6559 141.92C69.3841 141.579 68.3101 141.282 68.3384 140.36C68.3666 139.467 69.3276 138.984 70.3026 139.027Z" fill="white"/>
<path d="M60.7228 143.324L60.0277 147.793L62.2894 148.148L62.9846 143.678L60.7228 143.324Z" fill="white"/>
<path d="M50.4342 132.547C47.6927 131.497 44.8382 132.518 43.2979 135.085L45.7144 136.007C46.647 134.744 48.1025 134.291 49.5722 134.844C51.4516 135.553 52.2995 137.595 51.5505 139.594C50.7874 141.594 48.795 142.572 46.9155 141.863C45.5165 141.324 44.711 140.09 44.7676 138.602L42.3653 137.68C41.8848 140.516 43.3545 143.125 46.0535 144.16C49.3178 145.408 52.7234 143.834 53.9811 140.516C55.2105 137.226 53.6843 133.78 50.4342 132.547Z" fill="white"/>
<path d="M41.3478 128.505L38.7194 132.674L34.9464 130.278L37.5607 126.109L35.3986 124.733L29.0537 134.801L31.2299 136.177L33.6605 132.305L37.4476 134.688L35.0029 138.573L37.1791 139.949L43.5099 129.881L41.3478 128.505Z" fill="white"/>
<path d="M29.5059 119.132C26.9199 116.608 23.1327 116.65 20.6739 119.189C18.2151 121.741 18.2999 125.541 20.9 128.051C23.5001 130.575 27.3014 130.547 29.7603 128.009C32.205 125.47 32.106 121.656 29.5059 119.132ZM27.8808 126.194C26.397 127.739 24.0937 127.782 22.5816 126.307C21.0555 124.832 21.0413 122.549 22.5392 121.004C24.0371 119.458 26.2981 119.401 27.8243 120.876C29.3363 122.351 29.3646 124.662 27.8808 126.194Z" fill="white"/>
<path d="M22.2241 111.119L12.7624 118.311L14.3153 120.368L23.777 113.176L22.2241 111.119Z" fill="white"/>
<path d="M18.1586 104.143C16.7454 101.562 13.9051 100.485 11.0788 101.435L12.3224 103.703C13.8486 103.349 15.2475 103.959 16.0106 105.334C16.9857 107.107 16.3215 109.205 14.4421 110.241C12.5626 111.276 10.4147 110.723 9.45376 108.95C8.73307 107.631 8.9309 106.171 9.92009 105.065L8.67654 102.796C6.47208 104.639 5.90683 107.589 7.30582 110.127C8.98743 113.19 12.605 114.225 15.6997 112.51C18.7803 110.822 19.8402 107.206 18.1586 104.143Z" fill="white"/>
<path d="M12.3789 90.5582L10.1038 91.3098L11.6158 95.8333L9.29831 96.5991L7.99825 92.6853L5.79378 93.4226L7.09385 97.3365L4.87526 98.088L3.41974 93.7488L1.17289 94.5004L3.43388 101.293L14.6964 97.5208L12.3789 90.5582Z" fill="white"/>
<path d="M4.77634 78.7601C6.33722 78.7601 7.60257 77.4903 7.60257 75.924C7.60257 74.3577 6.33722 73.0879 4.77634 73.0879C3.21545 73.0879 1.9501 74.3577 1.9501 75.924C1.9501 77.4903 3.21545 78.7601 4.77634 78.7601Z" fill="white"/>
<path d="M140.436 75.924C141.997 75.924 143.262 74.6542 143.262 73.0879C143.262 71.5216 141.997 70.2518 140.436 70.2518C138.875 70.2518 137.609 71.5216 137.609 73.0879C137.609 74.6542 138.875 75.924 140.436 75.924Z" fill="white"/>
</svg>
